Coordinates
version=1
nRows=10
nColumns=46
inDegrees=yes

Units are S.I. units (second, meters, Newtons, ...)
Angles are in degrees.

endheader
time	pelvis_tilt	pelvis_list	pelvis_rotation	pelvis_tx	pelvis_ty	pelvis_tz	bb_angle	bb_tx	bb_ty	bb_tz	hip_flexion_r	hip_adduction_r	hip_rotation_r	knee_angle_r	knee_angle_r_beta	ankle_angle_r	subtalar_angle_r	mtp_angle_r	crank_angle_r	hip_flexion_l	hip_adduction_l	hip_rotation_l	knee_angle_l	knee_angle_l_beta	ankle_angle_l	subtalar_angle_l	mtp_angle_l	crank_angle_l	lumbar_extension	lumbar_bending	lumbar_rotation	arm_flex_r	arm_add_r	arm_rot_r	elbow_flex_r	pro_sup_r	wrist_flex_r	wrist_dev_r	arm_flex_l	arm_add_l	arm_rot_l	elbow_flex_l	pro_sup_l	wrist_flex_l	wrist_dev_l
      2.50500000	    -17.46769724	     -7.26590784	     -8.43356582	      0.19656892	      1.04908617	     -0.25285044	      0.00000000	      0.50000000	      0.00000000	      0.25000000	     75.19594358	      7.17374721	      2.24407024	     81.61538333	      1.42445716	     28.85891987	     -3.17720672	      0.00000000	      0.00000000	     50.14586304	    -13.08399698	      4.03833355	     72.12422476	      1.25880519	    -12.91925310	    -15.92474235	      0.00000000	      0.00000000	    -62.17015698	      8.08338087	      5.29503549	     89.17219355	     -7.44402653	     34.78141516	     62.49356739	     43.82655326	      0.00000000	      0.00000000	     62.99758723	    -30.78508850	      2.13862962	     83.89346120	     46.14290147	      0.00000000	      0.00000000
      2.51000000	    -17.64940340	     -6.86749955	     -8.08514753	      0.19639262	      1.04936861	     -0.25292760	      0.00000000	      0.50000000	      0.00000000	      0.25000000	     74.69566163	      6.68561367	      2.48325518	     80.06632957	      1.39742107	     28.72462272	     -3.01263711	      0.00000000	      0.00000000	     50.63747341	    -12.47005763	      4.10907367	     73.13478000	      1.27644271	    -12.24233737	    -16.08804357	      0.00000000	      0.00000000	    -62.12318983	      8.01730935	      4.58176819	     89.22612725	     -7.45313417	     34.99817484	     62.64637031	     43.73722061	      0.00000000	      0.00000000	     62.91304093	    -31.38714612	      2.43167891	     84.75566554	     46.23651026	      0.00000000	      0.00000000
      2.51500000	    -17.75172786	     -6.65884739	     -7.65190576	      0.19605077	      1.04977255	     -0.25315204	      0.00000000	      0.50000000	      0.00000000	      0.25000000	     74.05045509	      6.18883331	      2.51050429	     78.45146029	      1.36923629	     28.48867805	     -3.19454520	      0.00000000	      0.00000000	     51.13862271	    -11.95342167	      4.39144181	     74.21161925	      1.29523710	    -11.49358510	    -15.95551493	      0.00000000	      0.00000000	    -62.22873484	      8.10647331	      4.14333155	     89.22929558	     -7.56871720	     34.56024880	     63.22410429	     43.65170878	      0.00000000	      0.00000000	     63.01547908	    -31.66860017	      2.66114773	     85.46447251	     46.31379601	      0.00000000	      0.00000000
      2.52000000	    -17.93441744	     -6.54032287	     -7.34219528	      0.19577560	      1.04992467	     -0.25280326	      0.00000000	      0.50000000	      0.00000000	      0.25000000	     73.45744923	      5.94517032	      2.56328706	     76.78968643	      1.34023286	     28.26679606	     -2.74751673	      0.00000000	      0.00000000	     51.75429851	    -11.73151165	      4.56503657	     75.36687970	      1.31540020	    -10.67756085	    -15.65558235	      0.00000000	      0.00000000	    -62.32441642	      8.07992287	      4.10020612	     89.16515765	     -7.83357551	     33.47893499	     64.03139211	     43.71307622	      0.00000000	      0.00000000	     63.22566600	    -31.45940849	      2.66386544	     86.29390681	     46.40338896	      0.00000000	      0.00000000
      2.52500000	    -17.95907080	     -6.15484677	     -6.73364832	      0.19546282	      1.05027505	     -0.25325095	      0.00000000	      0.50000000	      0.00000000	      0.25000000	     72.73509862	      5.18445312	      2.66956664	     75.21902947	      1.31281972	     28.07068147	     -2.66328183	      0.00000000	      0.00000000	     52.20159873	    -10.95736146	      4.70643936	     76.44524288	      1.33422119	     -9.89631253	    -15.67736148	      0.00000000	      0.00000000	    -62.32212509	      8.17949565	      3.55158648	     89.21340763	     -8.20726609	     33.72707301	     64.21997282	     43.69734222	      0.00000000	      0.00000000	     63.89228192	    -31.67103838	      3.78359827	     85.99541716	     46.45203027	      0.00000000	      0.00000000
      2.53000000	    -18.01656461	     -6.07524884	     -6.16031895	      0.19504161	      1.05046543	     -0.25334149	      0.00000000	      0.50000000	      0.00000000	      0.25000000	     71.96678074	      4.67603553	      2.53775480	     73.53902276	      1.28349808	     27.74031143	     -2.80338424	      0.00000000	      0.00000000	     52.79219944	    -10.54608796	      5.02735600	     77.64974883	      1.35524378	     -9.03045266	    -15.32547174	      0.00000000	      0.00000000	    -62.46575611	      8.39051467	      3.43361376	     89.17671695	     -8.50352091	     32.90796992	     64.92520467	     43.78438525	      0.00000000	      0.00000000	     64.24389236	    -31.46477405	      4.01555136	     86.36575311	     46.49418192	      0.00000000	      0.00000000
      2.53500000	    -18.08759614	     -5.59680908	     -5.60418187	      0.19477234	      1.05064135	     -0.25336239	      0.00000000	      0.50000000	      0.00000000	      0.25000000	     71.27637668	      3.97739086	      2.75446267	     71.97916413	      1.25627341	     27.45124579	     -2.77065279	      0.00000000	      0.00000000	     53.30238645	     -9.86262583	      4.94628808	     78.73206439	      1.37413375	     -8.30328512	    -15.24105798	      0.00000000	      0.00000000	    -62.43192950	      8.28913669	      2.87807452	     89.17544641	     -9.15390663	     33.11456093	     65.45549761	     43.75670570	      0.00000000	      0.00000000	     64.98317378	    -31.82335358	      5.41408235	     86.30133209	     46.62292656	      0.00000000	      0.00000000
      2.54000000	    -18.11824766	     -5.26639811	     -5.12613984	      0.19436016	      1.05073223	     -0.25330294	      0.00000000	      0.50000000	      0.00000000	      0.25000000	     70.50380868	      3.43688099	      2.88531656	     70.36463539	      1.22809456	     27.17079868	     -2.67482699	      0.00000000	      0.00000000	     53.83839370	     -9.39285016	      4.86886915	     79.88207894	      1.39420529	     -7.82067134	    -15.35715737	      0.00000000	      0.00000000	    -62.41099772	      8.25721392	      2.36171485	     89.17542877	     -9.33223004	     32.99894598	     65.52180333	     43.74264459	      0.00000000	      0.00000000	     65.15531792	    -31.74690293	      5.53787712	     86.38935834	     46.65300081	      0.00000000	      0.00000000
      2.54500000	    -18.19454893	     -5.04178658	     -4.42247553	      0.19403424	      1.05080576	     -0.25333665	      0.00000000	      0.50000000	      0.00000000	      0.25000000	     69.73150052	      2.73196352	      2.74614623	     68.73215945	      1.19960248	     26.70450896	     -2.87401475	      0.00000000	      0.00000000	     54.48174313	     -8.85232800	      5.07870540	     81.07990199	      1.41511125	     -6.69607069	    -14.56742020	      0.00000000	      0.00000000	    -62.55034397	      8.51661326	      2.10529217	     89.15232228	     -9.79439372	     32.57645012	     66.41952232	     43.74462018	      0.00000000	      0.00000000	     65.81615439	    -32.00671102	      6.38893749	     86.74540165	     46.82648257	      0.00000000	      0.00000000
      2.55000000	    -18.29375818	     -4.61264699	     -3.94858666	      0.19379240	      1.05084569	     -0.25294622	      0.00000000	      0.50000000	      0.00000000	      0.25000000	     69.00828344	      2.12986858	      2.85180976	     67.12140858	      1.17148958	     26.35037493	     -2.75643379	      0.00000000	      0.00000000	     55.09314263	     -8.42235660	      4.83203476	     82.20961433	      1.43482845	     -6.20110329	    -14.63658188	      0.00000000	      0.00000000	    -62.47688674	      8.49478683	      1.62278104	     89.14043249	     -9.95366885	     32.50251771	     66.55535764	     43.74629403	      0.00000000	      0.00000000	     66.02258483	    -31.98023976	      6.51052904	     86.78871348	     46.84833350	      0.00000000	      0.00000000
